<?xml version="1.0" encoding="UTF-8"?>
<svg id="Capa_1" data-name="Capa 1" xmlns="http://www.w3.org/2000/svg" version="1.1" viewBox="0 0 65.8 75.5">
  <defs>
    <style>
      .cls-1 {
        fill: #fff;
        stroke-width: 0px;
      }
    </style>
  </defs>
  <path class="cls-1" d="M65.8,12.1h0c0-.1,0-.2,0-.2h0c0-.2,0-.2-.2-.3h0c0-.1,0-.2,0-.2L49.5.4c-.5-.4-1.3-.4-1.8,0l-15,10.2L18.2.3c-.5-.4-1.3-.4-1.8,0L.7,11.3c-.1,0-.1.1-.2.1,0,0,0,0,0,.1,0,.1-.2.3-.3.4H.1c-.1.3-.1.5-.1.7v50.3c0,.5.3,1,.7,1.3l15.7,11h.2c0,0,.1,0,.1,0,.2,0,.4.2.7.2s.4,0,.7-.2h.1s.1,0,.1,0h.1l14.8-10.4,14.8,10.4h.2c0,0,0,0,0,0,.2,0,.4.2.7.2s.4,0,.7-.2h0s0,0,0,0h.1l15.7-11h0c0,0,0-52.1,0-52.1h0ZM3.2,15.7l11.3,7.9-11.3,7.9v-15.8ZM15.7,70.8l-12.5-8.7v-24.4l7.9,5.5,4.6,3.2s0,24.4,0,24.4ZM47.1,70.9l-12.5-8.7v-24.5l12.5,8.8v24.4ZM47.7,24.9l13.8,9.7-12.2,8.6-.7.5-14.7-10.4h0s0,0,0,0h0s0,0,0,0h-1.2s0,0,0,0h0s0,0,0,0h-.1l-14.6,10.4-.7-.5-12.2-8.6,13.8-9.7c.4-.3.7-.8.7-1.3s-.3-1-.7-1.3L4.4,12.6,17.3,3.6l14.5,10.2c.5.4,1.3.4,1.8,0l15-10.2,12.9,9-13.8,9.7c-.4.3-.7.8-.7,1.3s.3,1,.7,1.3Z"/>
</svg>